<mxfile host="app.diagrams.net" modified="2021-05-14T07:06:20.542Z" agent="5.0 (Windows NT 10.0; Win64; x64) AppleWebKit/537.36 (KHTML, like Gecko) Chrome/90.0.4430.212 Safari/537.36" etag="pHiAxsQMj8j1s1AZ1lHf" version="14.6.13" type="github">
  <diagram id="tQZTior54kskZZ6vKHP7" name="Page-1">
    <mxGraphModel dx="782" dy="438" grid="1" gridSize="10" guides="1" tooltips="1" connect="1" arrows="1" fold="1" page="1" pageScale="1" pageWidth="827" pageHeight="1169" math="0" shadow="0">
      <root>
        <mxCell id="0" />
        <mxCell id="1" parent="0" />
        <mxCell id="-bMBAxVpsLkqdiTJ2wIZ-1" style="edgeStyle=orthogonalEdgeStyle;rounded=0;orthogonalLoop=1;jettySize=auto;html=1;exitX=1;exitY=0.5;exitDx=0;exitDy=0;entryX=0;entryY=0.5;entryDx=0;entryDy=0;" edge="1" parent="1" source="13jP0NaecX7miaP_Y9KJ-1" target="13jP0NaecX7miaP_Y9KJ-6">
          <mxGeometry relative="1" as="geometry" />
        </mxCell>
        <mxCell id="13jP0NaecX7miaP_Y9KJ-1" value="金控&lt;br&gt;正式" style="whiteSpace=wrap;html=1;aspect=fixed;" parent="1" vertex="1">
          <mxGeometry x="400" y="40" width="80" height="80" as="geometry" />
        </mxCell>
        <mxCell id="-bMBAxVpsLkqdiTJ2wIZ-2" style="edgeStyle=orthogonalEdgeStyle;rounded=0;orthogonalLoop=1;jettySize=auto;html=1;exitX=1;exitY=0.5;exitDx=0;exitDy=0;entryX=0;entryY=0.5;entryDx=0;entryDy=0;" edge="1" parent="1" source="13jP0NaecX7miaP_Y9KJ-2" target="13jP0NaecX7miaP_Y9KJ-1">
          <mxGeometry relative="1" as="geometry" />
        </mxCell>
        <mxCell id="-bMBAxVpsLkqdiTJ2wIZ-3" style="edgeStyle=orthogonalEdgeStyle;rounded=0;orthogonalLoop=1;jettySize=auto;html=1;exitX=1;exitY=0.5;exitDx=0;exitDy=0;entryX=0;entryY=0.5;entryDx=0;entryDy=0;" edge="1" parent="1" source="13jP0NaecX7miaP_Y9KJ-2" target="13jP0NaecX7miaP_Y9KJ-12">
          <mxGeometry relative="1" as="geometry" />
        </mxCell>
        <mxCell id="13jP0NaecX7miaP_Y9KJ-2" value="元富&lt;br&gt;WEB" style="whiteSpace=wrap;html=1;aspect=fixed;" parent="1" vertex="1">
          <mxGeometry x="190" y="120" width="80" height="80" as="geometry" />
        </mxCell>
        <mxCell id="13jP0NaecX7miaP_Y9KJ-6" value="1.SQL&lt;br&gt;SERVER" style="whiteSpace=wrap;html=1;aspect=fixed;" parent="1" vertex="1">
          <mxGeometry x="630" y="100" width="80" height="80" as="geometry" />
        </mxCell>
        <mxCell id="13jP0NaecX7miaP_Y9KJ-20" style="edgeStyle=orthogonalEdgeStyle;rounded=0;orthogonalLoop=1;jettySize=auto;html=1;exitX=0;exitY=0.5;exitDx=0;exitDy=0;entryX=1;entryY=0.5;entryDx=0;entryDy=0;dashed=1;" parent="1" source="13jP0NaecX7miaP_Y9KJ-7" target="13jP0NaecX7miaP_Y9KJ-15" edge="1">
          <mxGeometry relative="1" as="geometry" />
        </mxCell>
        <mxCell id="13jP0NaecX7miaP_Y9KJ-7" value="2.TABLEAU&lt;br&gt;SERVER" style="whiteSpace=wrap;html=1;aspect=fixed;" parent="1" vertex="1">
          <mxGeometry x="630" y="250" width="80" height="80" as="geometry" />
        </mxCell>
        <mxCell id="13jP0NaecX7miaP_Y9KJ-11" value="" style="endArrow=classic;html=1;exitX=0.5;exitY=0;exitDx=0;exitDy=0;entryX=0.5;entryY=1;entryDx=0;entryDy=0;dashed=1;" parent="1" source="13jP0NaecX7miaP_Y9KJ-7" target="13jP0NaecX7miaP_Y9KJ-6" edge="1">
          <mxGeometry width="50" height="50" relative="1" as="geometry">
            <mxPoint x="380" y="220" as="sourcePoint" />
            <mxPoint x="430" y="170" as="targetPoint" />
            <Array as="points">
              <mxPoint x="670" y="210" />
            </Array>
          </mxGeometry>
        </mxCell>
        <mxCell id="-bMBAxVpsLkqdiTJ2wIZ-4" style="edgeStyle=orthogonalEdgeStyle;rounded=0;orthogonalLoop=1;jettySize=auto;html=1;entryX=0;entryY=0.5;entryDx=0;entryDy=0;" edge="1" parent="1" source="13jP0NaecX7miaP_Y9KJ-12" target="13jP0NaecX7miaP_Y9KJ-15">
          <mxGeometry relative="1" as="geometry" />
        </mxCell>
        <mxCell id="13jP0NaecX7miaP_Y9KJ-12" value="測試機3&lt;br&gt;代替金控正式那台" style="whiteSpace=wrap;html=1;aspect=fixed;" parent="1" vertex="1">
          <mxGeometry x="330" y="200" width="80" height="80" as="geometry" />
        </mxCell>
        <mxCell id="13jP0NaecX7miaP_Y9KJ-15" value="4.&lt;br&gt;測試機&lt;br&gt;SQL SERVER" style="whiteSpace=wrap;html=1;aspect=fixed;" parent="1" vertex="1">
          <mxGeometry x="480" y="200" width="80" height="80" as="geometry" />
        </mxCell>
      </root>
    </mxGraphModel>
  </diagram>
</mxfile>
